<?xml version="1.0" encoding="UTF-8" standalone="no"?>
<!DOCTYPE svg PUBLIC "-//W3C//DTD SVG 1.1//EN" "http://www.w3.org/Graphics/SVG/1.1/DTD/svg11.dtd">
<svg width="100%" height="100%" viewBox="0 0 24 24" version="1.1" xmlns="http://www.w3.org/2000/svg" xmlns:xlink="http://www.w3.org/1999/xlink" xml:space="preserve" xmlns:serif="http://www.serif.com/" style="fill-rule:evenodd;clip-rule:evenodd;stroke-linejoin:round;stroke-miterlimit:2;">
    <path d="M15.526,11.409C14.474,12.251 7.585,17.767 5.99,19.045L3.293,16.348L10.961,6.844L15.526,11.409ZM20.835,1.542C18.78,-0.513 15.447,-0.513 13.392,1.542C12.037,2.898 11.922,4.384 11.856,4.911L17.466,10.521C17.95,10.467 19.468,10.352 20.835,8.985C22.891,6.93 22.891,3.597 20.835,1.542ZM11.001,19.482C8.709,19.482 7.662,20.909 6.185,21.837C5.139,22.493 4.149,22.16 3.673,21.571C3.5,21.36 3.006,20.6 3.847,19.729L3.722,19.604L2.596,18.513C1.224,19.929 1.467,21.621 2.317,22.67C3.292,23.874 5.253,24.482 7.112,23.315C8.697,22.32 9.399,21.227 11.001,21.227C12.037,21.227 12.981,21.691 14.486,24L15.947,23.048C14.554,20.908 13.179,19.482 11.001,19.482Z" style="fill:white;fill-rule:nonzero;"/>
</svg>
